<svg width="52" height="36" fill="none" xmlns="http://www.w3.org/2000/svg"><path d="M50.105 5.847a6.322 6.322 0 00-4.448-4.477C41.733.312 26 .312 26 .312S10.267.312 6.343 1.37a6.322 6.322 0 00-4.448 4.477C.844 9.797.844 18.036.844 18.036s0 8.24 1.051 12.188c.579 2.179 2.284 3.823 4.448 4.406C10.267 35.688 26 35.688 26 35.688s15.733 0 19.657-1.058c2.164-.583 3.87-2.227 4.448-4.406 1.051-3.949 1.051-12.188 1.051-12.188s0-8.24-1.051-12.189z" fill="red"/><path d="M20.855 25.516V10.555l13.15 7.48-13.15 7.481z" fill="#fff"/></svg>