<svg width="44" height="44" fill="none" xmlns="http://www.w3.org/2000/svg"><path d="M22 44c12.15 0 22-9.85 22-22S34.15 0 22 0 0 9.85 0 22s9.85 22 22 22z" fill="url(#paint0_linear_1_1559)"/><path d="M32.707 12.659L28.78 32.467s-.55 1.375-2.063.714l-9.066-6.953-3.3-1.59-5.552-1.865s-.85-.3-.937-.962c-.086-.662.963-1.014.963-1.014l22.069-8.654c0-.009 1.813-.808 1.813.516z" fill="#fff"/><path d="M16.946 32.244s-.267-.026-.593-1.066c-.327-1.04-2.002-6.54-2.002-6.54l13.329-8.465s.773-.463.739 0c0 0 .137.087-.275.465-.413.386-10.468 9.427-10.468 9.427" fill="#D2E4F0"/><path d="M21.123 28.892l-3.584 3.274s-.283.215-.584.078l.688-6.076" fill="#B5CFE4"/><defs><linearGradient id="paint0_linear_1_1559" x1="22" y1="0" x2="22" y2="43.84" gradientUnits="userSpaceOnUse"><stop stop-color="#41BCE7"/><stop offset="1" stop-color="#22A6DC"/></linearGradient></defs></svg>